<svg width="1217" height="812" viewBox="0 0 1217 812" fill="none" xmlns="http://www.w3.org/2000/svg">
<path d="M651.832 199.767L652.361 199.314C673.171 181.276 698.967 145.752 731.109 144.795C735.988 144.65 741.633 148.104 744.533 151.888C761.273 176.863 764.595 211.071 767.756 240.371C768.404 246.378 766.906 267.786 768.487 271.403C776.034 288.667 787.782 305.845 788.043 326.073C788.519 328.317 788.299 329.416 789.731 330.628C795.709 330.904 805.96 327.906 811.201 330.967C812.395 331.666 812.52 336.295 810.785 336.894C806.055 340.21 793.166 337.983 789.22 340.675L788.768 342.325C789.689 349.376 788.566 360.424 786.843 367.318C791.264 372.306 813.245 369.783 814.047 379.475C810.256 386.15 788.804 375.4 783.997 378.49L783.729 379.173C782.22 383.863 780.705 388.862 779.017 393.458C790.599 398.658 801.479 404.59 806.334 417.3C811.534 430.936 809.353 446.691 803.41 459.721C790.575 487.861 757.933 512.36 731.888 527.811C745.686 561.176 745.627 596.618 719.201 623.813C721.031 629.514 721.798 633.098 722.03 639.084C730.111 638.763 777.811 644.256 779.51 655.366C781.115 665.828 750.125 670.209 740.962 671.653C714.911 675.808 688.651 678.483 662.297 679.672C622.174 681.681 581.618 681.675 541.461 680.998C494.346 680.201 446.775 678.781 400.375 669.828C391.413 668.099 379.433 666.749 372.035 661.203C370.45 660.014 369.098 658.617 368.874 656.572C368.738 655.342 369.263 654.135 370.063 653.196C379.021 642.657 436.369 636.754 451.729 635.755L452.276 635.72C453.378 634.364 453.827 628.806 454.162 626.637C418.319 625.793 380.852 605.653 361.544 575.233C349.632 556.846 345.551 534.462 350.206 513.052C356.27 486.388 379.336 457.634 410.462 462.787C422.253 464.739 431.547 478.56 431.314 490.408C432.262 507.986 408.93 514.074 405.911 527.107C401.119 547.801 427.025 565.069 443.186 569.05C444.035 541.434 455.416 518.501 467.978 494.744C474.626 482.174 480.838 469.056 482.424 454.797C479.972 453.574 477.55 452.291 475.16 450.95C460.723 441.844 441.635 437.794 429.37 424.254C425.744 420.251 422.566 415.548 419.079 411.363C415.709 410.277 414.136 409.836 411.1 408.094C409.271 407.488 407.519 406.151 406.074 404.899C391.03 391.878 387.576 366.408 396.42 349.022C397.522 346.855 400.466 343.114 402.557 341.996C403.868 338.879 403.17 330.231 403.316 326.128C403.682 312.075 408.389 298.549 416.866 287.344C419.461 283.914 423.608 280.656 425.821 277.107C424.059 256.481 414.723 171.393 448.224 169.4C469.96 168.107 514.979 197.8 531.816 212.207C568.976 198.66 612.601 193.426 651.832 199.767ZM416.817 336.515C419.098 336.471 423.298 337.236 425.723 337.604C426.683 325.435 430.421 313.949 431.09 301.988C431.15 300.912 429.716 297.278 429.252 296.116C418.96 309.306 417.046 320.547 416.817 336.515Z" fill="#956944"/>
<path d="M763.68 375.047C767.322 375.622 770.971 376.146 774.631 376.616C778.042 377.191 781.733 377.108 783.729 379.173C782.22 383.863 780.705 388.862 779.017 393.458C790.599 398.658 801.479 404.59 806.334 417.3C811.534 430.936 809.353 446.691 803.41 459.721C790.575 487.861 757.933 512.36 731.888 527.811C745.686 561.176 745.627 596.618 719.201 623.813C721.031 629.514 721.798 633.098 722.03 639.084C730.111 638.763 777.811 644.256 779.51 655.366C781.115 665.828 750.125 670.209 740.962 671.653C714.911 675.808 688.651 678.483 662.297 679.672C622.174 681.681 581.618 681.676 541.461 680.998C494.346 680.201 446.775 678.781 400.375 669.828C391.413 668.099 379.433 666.749 372.035 661.203C370.45 660.014 369.098 658.617 368.874 656.573C368.738 655.342 369.263 654.135 370.063 653.196C379.021 642.657 436.369 636.754 451.729 635.755L452.276 635.72C453.378 634.364 453.827 628.806 454.162 626.637C418.319 625.793 380.852 605.653 361.544 575.233C349.632 556.846 345.551 534.462 350.206 513.052C356.27 486.388 379.336 457.634 410.462 462.787C422.253 464.739 431.547 478.56 431.314 490.408C432.262 507.986 408.93 514.074 405.911 527.107C401.119 547.801 427.025 565.069 443.186 569.05C444.035 541.434 455.416 518.501 467.978 494.744C474.626 482.174 480.838 469.056 482.424 454.797C479.972 453.574 477.55 452.291 475.16 450.95C478.272 449.813 487.518 453.174 493.205 453.734C492.8 455.347 492.189 457.479 492.008 459.083C503.577 466.295 525.945 475.419 539.63 479.76C579.584 492.434 622.928 496.292 661.952 478.036C668.394 475 674.538 471.675 680.546 467.861C684.896 465.096 689.643 460.875 694.201 458.749C693.577 458.625 692.157 458.235 691.646 457.866C683.267 451.814 697.713 446.903 700.589 444.528C709.925 436.814 719.843 427.851 726.171 417.539C727.336 416.336 729.968 412.613 731.032 411.165C737.379 402.481 740.671 398.771 750.107 393.606C753.179 390.703 762.99 379.48 764.399 376.052L763.68 375.047Z" fill="#956944"/>
<path d="M763.68 375.047C767.322 375.622 770.971 376.146 774.631 376.616C778.042 377.191 781.733 377.108 783.729 379.173C782.22 383.863 780.705 388.862 779.017 393.458C790.599 398.658 801.479 404.59 806.334 417.3C811.534 430.936 809.353 446.691 803.41 459.721C790.575 487.861 757.933 512.36 731.888 527.811C745.686 561.176 745.627 596.618 719.201 623.813C721.031 629.514 721.798 633.098 722.03 639.084C730.111 638.763 777.811 644.256 779.51 655.366C781.115 665.828 750.125 670.209 740.962 671.653C714.911 675.808 688.651 678.483 662.297 679.672C622.174 681.681 581.618 681.676 541.461 680.998C494.346 680.201 446.775 678.781 400.375 669.828C391.413 668.099 379.433 666.749 372.035 661.203C370.45 660.014 369.098 658.617 368.874 656.573C368.738 655.342 369.263 654.135 370.063 653.196C379.021 642.657 436.369 636.754 451.729 635.755L452.276 635.72C453.378 634.364 453.827 628.806 454.162 626.637C418.319 625.793 380.852 605.653 361.544 575.233C349.632 556.846 345.551 534.462 350.206 513.052C356.27 486.388 379.336 457.634 410.462 462.787C422.253 464.739 431.547 478.56 431.314 490.408C432.262 507.986 408.93 514.074 405.911 527.107C401.119 547.801 427.025 565.069 443.186 569.05C444.035 541.434 455.416 518.501 467.978 494.744C474.626 482.174 480.838 469.056 482.424 454.797C479.972 453.574 477.55 452.291 475.16 450.95C478.272 449.813 487.518 453.174 493.205 453.734C492.8 455.347 492.189 457.479 492.008 459.083C485.576 491.435 462.385 516.746 455.577 549.291C450.707 572.564 451.649 594.045 468.597 612.644C477.387 610.094 480.42 610.581 489.173 613.755C493.652 615.378 494.758 620.734 490.482 622.868C485.18 622.339 480.58 620.324 475.211 621.001C467.898 621.917 462.775 626.048 462.478 633.746C461.968 643.334 465.382 646.021 473.71 648.595C473.622 644.262 473.207 640.547 475.503 636.748C477.382 635.506 476.521 635.738 478.739 635.845C479.7 636.445 481.186 637.063 481.224 638.056C481.362 641.706 480.654 645.605 480.817 649.356C494.314 649.303 502.658 649.297 515.573 644.791C504.392 622.743 501.26 588.77 498.847 564.317C498.356 559.338 496.874 546.171 501.41 543.213C510.587 542.473 507.261 555.045 508.122 561.228C510.132 575.66 510.816 591.413 514.29 605.564C518.619 623.189 521.351 646.978 540.188 654.759C539.417 650.592 537.411 640.844 541.685 637.854C545.415 638.026 545.981 646.009 546.609 648.934C547.257 651.966 547.871 653.743 549.068 656.62C553.174 656.703 557.445 656.87 561.535 656.703C560.6 652.001 557.451 641.587 562.474 638.674C570.274 639.197 564.891 652.102 569.374 654.052C573.35 652.881 576.699 650.176 578.689 646.538C586.299 632.64 577.002 599.447 579.084 583.499C579.378 581.243 580.736 580.363 582.727 579.742C590.97 582.132 592.871 634.138 590.285 643.168L633.951 643.001C634.439 633.55 636.626 626.643 643.881 619.783C652.92 611.229 670.592 608.78 680.415 617.399C681.675 618.505 681.758 620.71 681.586 622.279C681.217 622.862 680.569 624.182 679.785 624.134C675.12 623.849 670.699 623.106 665.91 621.941C651.66 618.457 634.849 640.76 647.976 650.533C651.957 653.493 661.685 654.04 667.336 654.504C666.819 650.682 665.755 640.784 670.295 639.138C672.232 639.637 672.304 639.643 673.504 641.153C674.502 645.04 673.67 650.135 674.051 654.444C686.138 654.468 712.575 653.154 712.415 635.226C712.403 633.627 711.838 631.137 711.523 629.52C706.817 630.572 705.325 630.911 700.827 628.836C697 623.676 708.707 620.038 711.927 617.09C737.159 594.021 734.52 561.225 723.521 532.76C720.514 532.28 718.054 531.611 716.729 528.536C717.044 526.606 717.4 525.782 719.141 524.499C732.732 514.449 759.989 500.578 769.307 486.929C779.736 478.435 789.137 466.848 795.067 454.558C803.541 436.984 801.348 413.276 780.871 405.255C758.819 396.617 747.594 403.939 735.572 422.464C726.51 436.427 709.788 452.579 694.201 458.749C693.577 458.625 692.157 458.235 691.646 457.866C683.267 451.814 697.713 446.903 700.589 444.528C709.925 436.814 719.843 427.851 726.171 417.539C727.336 416.336 729.968 412.613 731.032 411.165C737.379 402.481 740.671 398.771 750.107 393.606C753.179 390.703 762.99 379.48 764.399 376.052L763.68 375.047Z" fill="#5D3E26"/>
<path d="M451.729 635.756C453.354 637.379 452.992 640.749 453.743 643.27C461.182 668.26 504.3 659.165 521.141 653.957C531.189 663.302 538.782 666.809 552.832 667.047C567.807 667.297 576.313 664.33 586.593 653.619L635.9 653.417C648.469 669.871 697.6 666.601 713.134 654.962C718.577 650.884 720.77 645.505 722.029 639.085C730.111 638.764 777.81 644.256 779.51 655.366C781.114 665.828 750.125 670.209 740.962 671.654C714.91 675.809 688.651 678.484 662.296 679.673C622.174 681.682 581.617 681.676 541.46 680.998C494.346 680.202 446.775 678.781 400.375 669.829C391.413 668.099 379.433 666.75 372.035 661.204C370.45 660.015 369.098 658.618 368.873 656.573C368.737 655.343 369.263 654.136 370.063 653.197C379.021 642.657 436.369 636.755 451.729 635.756Z" fill="#EEDCCC"/>
<path d="M763.679 375.047C767.322 375.622 770.971 376.146 774.631 376.616C772.819 381.953 771.535 385.816 769.033 390.877C762.378 391.417 756.596 391.814 750.107 393.606C753.179 390.703 762.99 379.48 764.398 376.052L763.679 375.047Z" fill="#765032"/>
<path d="M398.759 472.125C407.442 471.238 416.089 473.267 420.182 481.792C421.607 484.786 422.115 488.135 421.643 491.417C420.009 503.163 409.99 504.866 403.182 512.464C394.717 521.912 394.384 537.747 400.244 548.581C409.555 565.796 425.05 573.61 442.665 579.394C445.486 593.949 448.536 605.279 458.093 617.067C452.751 617.049 449.654 616.894 444.347 616.27C405.225 609.375 370.54 586.34 359.798 546.174C352.056 517.223 367.774 478.934 398.759 472.125Z" fill="#956944"/>
<path d="M723.521 532.761C720.555 533.432 715.748 534.729 712.83 533.791C704.113 530.992 705.04 522.585 712.325 518.874C722.487 513.7 732.678 509.983 742.774 504.683C752.484 499.582 760.025 492.16 769.307 486.93C759.989 500.579 732.731 514.45 719.141 524.499C717.4 525.783 717.044 526.607 716.729 528.537C718.054 531.612 720.514 532.28 723.521 532.761Z" fill="#765032"/>
<path d="M755.485 429.289C770.002 428.295 776.17 438.64 774.191 452.079C770.953 455.32 770.323 456.22 765.836 456.895C753.922 455.891 733.967 437.495 755.485 429.289Z" fill="#5D3E26"/>
<path d="M779.866 415.467C790.349 415.399 790.717 425.147 782.011 430.433C771.018 432.238 772.617 421.007 779.866 415.467Z" fill="#5D3E26"/>
<path d="M759.603 408.406C770.02 407.23 770.869 415.758 763.917 421.825C763.263 421.94 762.61 422.034 761.956 422.107C752.935 423.022 754.409 413.618 759.603 408.406Z" fill="#5D3E26"/>
<path d="M785.571 436.959C796.309 436.235 796.772 444.51 788.97 450.154C779.605 449.633 779.005 442.539 785.571 436.959Z" fill="#5D3E26"/>
<path d="M651.832 199.767L652.361 199.314C673.171 181.276 698.967 145.752 731.109 144.795C735.988 144.65 741.633 148.104 744.533 151.888C761.273 176.863 764.594 211.071 767.756 240.371C768.403 246.378 766.906 267.786 768.487 271.403C776.033 288.667 787.782 305.845 788.043 326.073C787.942 329.036 788.417 328.798 786.902 330.765C784.436 332.097 781.982 332.045 779.272 332.694C778.262 319.723 774.946 304.872 768.796 293.351C765.658 287.48 760.975 281.466 759.347 274.974C757.339 266.946 759.02 252.426 758.569 243.507C757.672 225.507 749.584 168.694 736.237 156.497C734.104 154.548 731.543 154.069 728.738 154.318C710.376 155.955 684.99 180.191 672.565 192.958C667.145 198.529 661.946 205.469 655.433 209.738C622.946 206.53 594.708 205.221 562.508 213.25C551.667 215.954 541.555 219.514 530.926 222.064L530.217 221.744C522.398 218.144 513.578 210.337 504.727 204.592C490.95 195.648 463.083 176.589 445.591 179.422C443.277 179.796 439.881 184.827 439.049 187.466C429.976 216.602 432.711 248.039 436.025 277.885C436.709 284.047 441.584 301.096 440.839 306.042C438.815 319.493 434.817 330.293 435.038 344.715C442.381 353.035 442.77 358.068 444.727 368.858C444.951 370.092 445.368 374.21 445.664 375.017C452.086 375.021 480.283 376.155 481.855 383.281C481.165 385.148 480.792 385.318 479.135 386.475C473.796 387.622 462.832 385.243 456.868 384.82C452.599 384.517 449.188 384.407 444.865 384.409C444.312 389.046 443.21 393.603 441.582 397.981L441.558 399.543C439.065 403.003 435.9 407.637 431.762 409.232C431.391 408.692 430.636 408.155 430.249 408.174C422.615 408.55 418.66 409.826 411.1 408.094C409.271 407.488 407.519 406.151 406.074 404.899C391.03 391.878 387.576 366.408 396.419 349.022C397.522 346.855 400.466 343.114 402.557 341.996C403.867 338.879 403.17 330.231 403.316 326.128C403.682 312.075 408.389 298.549 416.865 287.344C419.46 283.914 423.608 280.656 425.821 277.107C424.058 256.481 414.722 171.393 448.224 169.4C469.959 168.107 514.979 197.8 531.816 212.207C568.976 198.66 612.6 193.426 651.832 199.767ZM416.816 336.515C419.098 336.471 423.298 337.236 425.722 337.604C426.683 325.435 430.42 313.949 431.09 301.988C431.15 300.912 429.716 297.278 429.252 296.116C418.959 309.306 417.045 320.547 416.816 336.515Z" fill="#5D3E26"/>
<path d="M408.68 343.279C409.305 341.865 411.45 340.371 412.891 339.895C420.45 337.395 428.331 341.116 434.239 345.416L435.038 344.715C442.381 353.035 442.77 358.068 444.727 368.858C444.952 370.092 445.369 374.21 445.665 375.017C452.087 375.021 480.283 376.155 481.856 383.282C481.166 385.148 480.792 385.318 479.136 386.476C473.796 387.622 462.832 385.243 456.868 384.821C452.599 384.517 449.188 384.407 444.865 384.409C444.312 389.046 443.21 393.603 441.582 397.981C441.021 396.974 442.113 392.328 442.367 390.646C438.845 407.736 418.5 414.356 407.565 399.703C404.31 395.342 399.703 386.721 400.293 381.266C398.241 367.92 398.083 353.089 408.68 343.279Z" fill="#2A231D"/>
<path d="M442.944 373.932C443.888 374.454 444.61 374.999 445.665 375.017C452.086 375.021 480.283 376.155 481.855 383.282C481.166 385.148 480.792 385.318 479.136 386.475C473.796 387.622 462.832 385.243 456.868 384.821C452.599 384.517 449.188 384.407 444.865 384.409C444.312 389.046 443.21 393.603 441.582 397.981C441.021 396.974 442.113 392.328 442.367 390.646C438.844 407.736 418.5 414.356 407.565 399.703C404.31 395.342 399.703 386.721 400.293 381.266C405.658 396.764 415.024 416.753 434.198 402.12C437.776 399.39 444.065 387.897 441.202 384.62C437.466 383.919 423.209 384.402 418.577 384.416C418.45 381.889 418.664 378.836 418.778 376.264C424.194 375.431 440.645 375.351 442.944 373.932Z" fill="#4A2F19"/>
<path d="M408.68 343.279C409.305 341.865 411.45 340.371 412.891 339.895C420.45 337.395 428.331 341.116 434.238 345.416L435.038 344.715C442.381 353.035 442.77 358.068 444.727 368.858C444.951 370.092 445.369 374.21 445.664 375.017C444.61 374.999 443.888 374.454 442.944 373.932C442.233 366.718 441.501 360.189 438.27 353.626C432.147 341.193 420.945 337.182 408.68 343.279Z" fill="#4A2F19"/>
<path d="M425.821 277.107C426.378 282.063 427.894 291.369 429.252 296.116C418.959 309.306 417.045 320.547 416.817 336.515C407 337.02 409.279 338.941 402.557 341.996C403.868 338.879 403.17 330.231 403.316 326.128C403.682 312.075 408.389 298.549 416.865 287.344C419.46 283.914 423.608 280.656 425.821 277.107Z" fill="#2A231D"/>
<path d="M586.824 462.517C589.524 463.77 607.103 461.765 610.99 461.384C642.948 458.257 673.682 449.309 701.587 433.278C709.966 428.463 717.65 422.211 726.171 417.539C719.842 427.851 709.924 436.814 700.589 444.528C697.713 446.903 683.267 451.814 691.646 457.866C692.157 458.235 693.577 458.625 694.201 458.75C689.643 460.875 684.895 465.096 680.545 467.861C674.538 471.675 668.393 475 661.952 478.036C622.928 496.292 579.584 492.434 539.63 479.761C525.945 475.419 503.576 466.295 492.008 459.083C492.189 457.479 492.799 455.347 493.205 453.734C508.484 457.109 530.582 458.942 546.192 457.31C550.111 463.543 552.898 465.874 560.422 467.796C566.708 469.401 577.375 468.625 582.948 465.04C584.209 464.228 585.417 463.359 586.824 462.517Z" fill="#765032"/>
<path d="M411.1 408.095C418.661 409.826 422.615 408.55 430.249 408.174C430.636 408.155 431.392 408.692 431.762 409.232C433.411 412.061 434.886 413.61 437.051 416.079C438.991 417.657 443.707 421.588 445.621 422.75C447.28 420.722 450.298 419.687 452.717 418.639C454.354 418.003 457.048 416.654 458.725 415.875C465.858 423.095 478.759 430.953 487.734 435.971C491.116 437.862 498.6 441.386 501.283 443.544C516.698 446.763 529.714 446.684 545.366 446.334C546.976 440.652 549.132 436.277 554.515 433.439C565.522 427.636 583.11 429.158 589.494 440.845C591.729 444.931 592.263 449.734 590.979 454.211C590.155 457.026 588.712 460.245 586.825 462.517C585.417 463.359 584.209 464.229 582.948 465.04C577.376 468.625 566.708 469.401 560.422 467.796C552.898 465.875 550.111 463.543 546.192 457.31C530.582 458.942 508.484 457.109 493.205 453.734C487.517 453.174 478.272 449.813 475.16 450.951C460.723 441.844 441.634 437.795 429.369 424.254C425.744 420.251 422.566 415.548 419.078 411.364C415.709 410.278 414.136 409.836 411.1 408.095Z" fill="#2A231D"/>
<path d="M452.717 418.64C454.354 418.004 457.048 416.654 458.725 415.875C465.858 423.095 478.759 430.953 487.734 435.972C491.116 437.863 498.6 441.386 501.283 443.544C493.384 443.408 473.938 437.762 466.528 434.337C463.463 430.124 453.744 421.961 452.717 418.64Z" fill="#765032"/>
<path d="M445.621 422.75C447.28 420.723 450.298 419.688 452.717 418.64C453.744 421.961 463.463 430.124 466.528 434.337C460.017 432.195 451.237 426.441 445.621 422.75Z" fill="#5D3E26"/>
<path d="M744.486 374.605C743.03 372.796 742.328 372.241 741.954 369.948C742.923 367.015 744.432 366.115 747.54 365.786C755.069 364.99 763.87 365.718 771.333 366.142L777.608 366.776C779.593 367.037 786.581 367.254 786.843 367.318C791.264 372.306 813.245 369.783 814.047 379.475C810.256 386.15 788.804 375.4 783.996 378.49L783.729 379.173C781.732 377.108 778.042 377.191 774.631 376.616C770.971 376.146 767.322 375.622 763.679 375.047C757.28 375.023 750.88 374.875 744.486 374.605Z" fill="#4A2F19"/>
<path d="M788.043 326.073C788.519 328.317 788.299 329.416 789.731 330.628C795.709 330.904 805.959 327.906 811.201 330.967C812.395 331.666 812.52 336.295 810.785 336.894C806.055 340.21 793.165 337.983 789.22 340.676L788.768 342.325C787.491 339.17 782.261 341.338 779.569 342.084C774.708 343.569 746.274 352.95 743.808 352.646C741.502 351.426 740.801 350.703 741.324 348.176C746.084 341.823 771.268 334.687 779.272 332.694C781.982 332.045 784.436 332.097 786.902 330.765C788.418 328.799 787.942 329.037 788.043 326.073Z" fill="#4A2F19"/>
<path d="M441.558 399.544C442.644 401.771 448.429 408.249 450.349 409.452C456.715 406.859 463.321 404.116 469.922 402.211C474.235 400.965 483.017 397.452 485.211 402.971C484.929 404.588 484.598 406.391 482.846 407.225C474.938 410.995 466.796 411.685 458.725 415.875C457.048 416.654 454.354 418.004 452.717 418.64C450.298 419.688 447.28 420.723 445.62 422.75C443.707 421.589 438.991 417.657 437.051 416.079C434.886 413.61 433.411 412.062 431.762 409.233C435.9 407.638 439.065 403.004 441.558 399.544Z" fill="#4A2F19"/>
<path d="M441.558 399.544C442.644 401.771 448.429 408.249 450.349 409.452C445.716 411.235 441.263 413.454 437.051 416.079C434.886 413.61 433.411 412.062 431.762 409.233C435.9 407.638 439.065 403.004 441.558 399.544Z" fill="#765032"/>
<path d="M779.569 342.084C782.261 341.338 787.491 339.17 788.768 342.325C789.689 349.376 788.566 360.425 786.843 367.318C786.581 367.254 779.593 367.038 777.608 366.777C778.31 361.994 778.755 358.088 779.13 353.268C779.706 349.501 779.581 345.884 779.569 342.084Z" fill="#5D3E26"/>
<path d="M779.129 353.268C778.755 358.088 778.309 361.995 777.608 366.777L771.333 366.142C773.989 361.885 776.586 357.593 779.129 353.268Z" fill="#765032"/>
<path d="M671.323 305.082C695.52 303.819 702.722 341.61 693.452 358.495C690.124 364.56 685.281 366.751 678.84 368.367C665.25 368.601 657.239 359.971 654.351 347.231C650.703 331.121 652.158 309.557 671.323 305.082Z" fill="#2A231D"/>
<path d="M675.661 313.666C685.109 313.472 687.207 325.334 680.046 331.576C670.848 330.369 668.613 319.363 675.661 313.666Z" fill="#F9F6F1"/>
<path d="M527.136 323.525C539.981 323.088 547.704 330.279 551.678 342.163C556.67 357.093 556.389 377.988 538.953 383.96C510.659 389.775 499.305 332.769 527.136 323.525Z" fill="#2A231D"/>
<path d="M535.187 330.939C536.811 331.476 538.255 332.449 539.362 333.754C543.876 339.139 542.054 345.287 537.021 349.318C528.136 346.995 527.06 335.983 535.187 330.939Z" fill="#F9F6F1"/>
<path d="M724.02 182.464C726.058 182.316 729.422 182.089 730.8 183.821C736.636 191.166 744.777 238.493 738.965 243.359C734.675 243.345 722.308 235.348 718.119 232.9C713.324 230.426 693.131 221.408 691.141 218.479C690.606 215.415 692.27 212.671 694.082 210.306C702.051 199.926 711.897 187.861 724.02 182.464Z" fill="#EEDCCC"/>
<path d="M455.443 207.547C455.928 207.507 456.527 207.504 456.998 207.42C466.49 205.722 497.681 228.834 498.159 236.657C497.065 240.166 481.037 250.911 476.866 253.96C472.464 257.363 458.913 269.892 455.553 271.228C449.742 268.181 447.517 215.181 455.443 207.547Z" fill="#EEDCCC"/>
<path d="M607.549 358.742C612.226 358.385 621.954 356.908 624.943 360.412C630.445 366.867 615.964 378.08 612.499 381.144C615.096 389.094 619.404 393.302 628.312 392.1C636.435 391.006 635.158 381.253 640.648 380.902C649.669 384.347 638.034 397.705 631.159 399.11C621.859 401.012 618.275 399.623 610.224 395.457L609.225 395.788C592.745 413.325 569.258 397.732 576.021 388.165C580.877 386.931 587.457 397.178 594.518 395.532C597.174 394.913 603.414 391.903 604.56 389.699C609.201 379.718 588.198 375.383 587.25 366.848C586.503 360.133 603.491 359.083 607.549 358.742Z" fill="#2A231D"/>
<path d="M827.453 110.221C845.94 109.903 864.433 109.887 882.919 110.172C898.417 110.37 913.095 110.869 924.469 122.889C938.493 137.272 937.441 153.858 937.851 171.87C938.861 216.126 913.701 229.566 873.382 228.236C864.706 227.883 850.361 228.36 841.638 229.664C833.574 238.076 827.334 246.161 814.273 246.704C811.563 246.816 809.275 246.676 807.172 244.72C805.377 240.293 806.91 230.337 806.869 224.546C804.825 221.768 797.361 215.776 794.324 212.411C783.343 200.236 783.658 189.804 782.475 174.753C782.333 173 780.657 168.975 780.716 167.657C781.376 153.178 784.181 135.951 794.122 125.032C803.63 114.584 814.303 110.891 827.453 110.221Z" fill="#EEDCCC"/>
<path d="M824.583 117.349C827.364 117.069 830.894 117.132 833.728 117.112C850.23 116.997 866.738 117.384 883.24 117.089C889.539 116.976 895.957 116.95 902.119 118.411C908.596 119.89 914.527 123.137 919.269 127.792C933.685 142.078 929.478 159.796 930.227 178.177C930.684 189.45 927.523 201.024 919.221 209.178C906.255 221.913 890.038 219.797 873.382 219.505C863.012 219.409 852.637 219.52 842.274 219.841C830.27 229.534 830.995 236.288 812.966 240.675C814.689 220.962 817.797 220.093 800.98 209.345C794.277 204.411 790.456 192.163 789.981 184.602C788.234 156.935 787.586 120.56 824.583 117.349Z" fill="#F9F6F1"/>
<path d="M886.455 161.466C890.502 159.844 895.095 161.799 896.735 165.839C898.375 169.879 896.438 174.483 892.403 176.137C888.351 177.801 883.716 175.851 882.07 171.788C880.424 167.725 882.39 163.098 886.455 161.466Z" fill="#956944"/>
<path d="M828.659 161.523C832.67 160.043 837.133 162.024 838.732 165.995C840.324 169.964 838.476 174.485 834.554 176.198C831.916 177.351 828.861 176.977 826.573 175.222C824.292 173.466 823.139 170.606 823.573 167.757C824.006 164.908 825.955 162.52 828.659 161.523Z" fill="#956944"/>
<path d="M857.569 161.508C861.634 159.91 866.221 161.926 867.796 166.002C869.371 170.077 867.326 174.655 863.244 176.205C859.191 177.743 854.663 175.72 853.1 171.678C851.543 167.637 853.534 163.092 857.569 161.508Z" fill="#956944"/>
</svg>
