<svg width="1020" height="979" viewBox="0 0 1020 979" fill="none" xmlns="http://www.w3.org/2000/svg">
<g clip-path="url(#clip0_102_5)">
<path d="M268.151 219.238C277.802 218.225 294.732 218.363 304.729 218.45C330.141 218.672 356.571 219.033 381.932 219.704C462.797 222.661 550.613 245.448 607.774 305.832C668.453 369.943 686.889 430.987 682.943 517.884C678.997 605.109 655.899 676.264 590.529 738.289C514.513 810.43 408.921 832.932 307.115 832.513C256.941 831.973 186.021 824.137 150.689 785.861C125.49 758.083 118.504 719.388 119.395 681.187C120.644 627.686 145.336 563.74 178.186 520.893C179.821 518.761 182.759 518.394 185.19 518.53C195.718 525.605 204.723 559.582 213.16 570.54C213.806 570.87 214.457 571.187 215.114 571.492C228.023 577.405 263.487 572.86 278.869 572.253C292.136 571.766 305.414 571.669 318.686 571.963C338.247 572.41 359.512 575.075 378.758 577.2C390.54 578.503 417.874 585.362 427.115 580.095C440.982 572.192 462.62 536.58 477.445 531.145C491.442 533.093 488.622 586.507 488.632 597.925C490.707 605.389 500.125 609.716 507.31 608.59C510.781 608.069 513.88 606.124 515.872 603.23C522.629 593.514 519.408 540.725 517.203 527.87C499.744 426.087 423.951 543.212 410.726 546.054C408.4 542.488 421.075 528.126 404.593 526.934C400.824 526.662 394.542 525.5 390.587 524.976C345.887 519.049 291.318 514.184 246.703 521.478C246.704 526.579 248.054 539.357 241.891 540.986C225.47 532.036 208.389 443.822 163.159 482.526C160.26 485.006 156.353 489.304 154.137 492.376C107.057 557.635 74.1673 637.327 89.1481 718.969C91.2114 730.137 93.9698 741.155 97.4086 751.969C103.013 769.045 108.24 776.295 110.188 795.074C113.41 826.166 115.658 857.034 117.921 888.247C118.921 905.975 122.365 925.248 120.862 942.92C117.881 977.976 66.5527 989.59 43.2043 967.535C36.2635 960.983 31.0946 953.138 29.7694 943.618C27.9062 930.236 27.3003 916.333 26.4283 902.848L21.2743 813.184L2.61097 497.323C-1.39178 425.72 -3.25499 357.889 48.4449 300.294C102.847 239.687 190.469 223.189 268.151 219.238ZM257.03 324.222C222.231 322.675 192.137 334.609 178.697 368.539C165.669 401.321 186.961 434.499 216.902 448.196C219.069 449.187 239.314 455.677 240.079 456.837C243.31 461.735 241.205 502.961 246.345 503.77C257.136 505.467 278.916 503.442 289.492 503.203C314.043 502.609 338.61 503.391 363.077 505.545C372.309 506.761 412.094 513.752 418.423 511.462C427.152 503.097 431.675 464.813 438.851 452.979C439.726 451.538 459.251 445.912 461.829 444.987C508.92 428.075 524.992 366.68 488.827 329.979C474.96 315.859 455.993 307.903 436.208 307.899C425.812 307.867 418.6 309.551 408.8 310.54C391.006 284.907 361.718 268.856 329.964 273.016C293.619 277.208 274.829 293.64 257.03 324.222ZM220.074 713.488C239.223 709.086 251.237 690.065 246.98 670.885C242.724 651.696 223.792 639.542 204.577 643.655C185.155 647.806 172.835 666.986 177.137 686.38C181.439 705.764 200.716 717.936 220.074 713.488ZM389.926 723.836C409.423 721.11 422.974 703.028 420.126 683.55C417.269 664.073 399.112 650.635 379.652 653.603C360.359 656.553 347.06 674.523 349.889 693.834C352.718 713.144 370.606 726.545 389.926 723.836Z" fill="#895C3D"/>
<path d="M285.722 417.496C292.175 418.826 293.107 420.878 296.104 426.455C303.759 440.703 317.527 447.642 333.055 449.631C336.638 450.091 342.045 449.892 342.966 453.778C340.751 457.305 342.222 455.924 338.136 457.757C328.569 459.692 326.075 458.197 318.132 458.509C303.89 459.07 266.536 429.896 285.722 417.496Z" fill="#895C3D"/>
<path d="M696.569 0.365644C698.281 0.283751 699.993 0.221389 701.706 0.179511C755.274 -0.846019 812.435 0.104142 866.209 0.096697L918.4 0.100417C931.466 0.106932 945.827 -0.339763 958.725 1.83693C985.491 6.35317 1010.65 28.3853 1016.76 55.1338C1021.03 73.8511 1019.32 99.6988 1019.29 119.455L1019.54 189.426C1019.62 215.429 1017.37 237.35 997.729 256.795C974.36 279.932 951.42 278.917 921.108 279.004L877.144 279.065C853.273 279.13 825.567 278.087 802.189 279.23C786.237 292.443 770.407 305.797 754.688 319.29C741.678 330.622 704.87 371.947 705.41 327.797C705.605 311.549 706.117 295.45 705.67 279.182C699.631 278.962 693.646 278.827 687.672 278.089C653.582 274.143 624.889 242.679 623.326 208.498C621.753 174.297 622.935 139.173 622.553 104.849C622.386 90.3192 622.042 72.4971 625.234 58.4449C627.989 46.7993 633.479 35.9791 641.26 26.8833C656.057 9.23248 674.121 2.26595 696.569 0.365644ZM737.527 163.923C750.966 160.829 759.351 147.448 756.289 134.01C753.227 120.572 739.872 112.147 726.424 115.176C712.93 118.215 704.47 131.632 707.541 145.115C710.612 158.6 724.051 167.027 737.527 163.923ZM825.93 164.368C839.583 162.156 848.852 149.274 846.6 135.625C844.348 121.977 831.439 112.751 817.796 115.039C804.208 117.319 795.023 130.164 797.266 143.758C799.509 157.354 812.324 166.571 825.93 164.368ZM916.092 164.197C929.447 161.684 938.325 148.932 936.055 135.532C933.775 122.133 921.183 113.029 907.744 115.067C898.838 116.417 891.346 122.471 888.163 130.898C884.98 139.326 886.59 148.816 892.379 155.72C898.177 162.623 907.232 165.864 916.092 164.197Z" fill="#895C3D"/>
</g>
<defs>
<clipPath id="clip0_102_5">
<rect width="1020" height="979" fill="white"/>
</clipPath>
</defs>
</svg>
